{"title":"Son Of Sardar ~ Kishan(Wall.e)","uid":7823016,"size":856173976,"categoryP":"video","categoryS":"movies","magnet":"?xt=urn:btih:a9538855bde92bbbb872667347f3fa0d9e404b6a&amp;dn=Son+Of+Sardar+%7E+Kishan%28Wall.e%29&amp;tr=udp%3A%2F%2Ftracker.openbittorrent.com%3A80&amp;tr=udp%3A%2F%2Fopen.demonii.com%3A1337&amp;tr=udp%3A%2F%2Ftracker.coppersurfer.tk%3A6969&amp;tr=udp%3A%2F%2Fexodus.desync.com%3A6969","seeders":1,"leechers":0,"uploader":"wall.e","files":11,"time":1352866731,"description":"Info\n\nGeneral\nFormat                                   : Matroska\nFile size                                : 816 MiB\nDuration                                 : 2h 14mn\nOverall bit rate                         : 840 Kbps\nMovie name                               : Son Of Sardar ~ Kishan(Wall.e)\n\nVideo\nID                                       : 1\nFormat                                   : MPEG Video\nDuration                                 : 2h 14mn\nBit rate                                 : 695 Kbps\nMaximum bit rate                         : 9 672 Kbps\nWidth                                    : 352 pixels\nHeight                                   : 288 pixels\nFrame rate                               : 25.000 fps\nStream size                              : 672 MiB (83%)\nTitle                                    : Son Of Sardar ~ Kishan(Wall.e)\n\nAudio\nID                                       : 2\nFormat                                   : MPEG Audio\nDuration                                 : 2h 14mn\nBit rate                                 : 128 Kbps\nChannel(s)                               : 2 channels\nStream size                              : 124 MiB (15%)\n\nSample:\n\nRipper Note:\nCheck sample before download movie.\n\nThanks:\nA Big Thanks To ExDKing For This Source\n","torrent":{"xt":"urn:btih:a9538855bde92bbbb872667347f3fa0d9e404b6a","amp;dn":"Son+Of+Sardar+%7E+Kishan%28Wall.e%29","amp;tr":["udp%3A%2F%2Ftracker.openbittorrent.com%3A80","udp%3A%2F%2Fopen.demonii.com%3A1337","udp%3A%2F%2Ftracker.coppersurfer.tk%3A6969","udp%3A%2F%2Fexodus.desync.com%3A6969"],"infoHash":"a9538855bde92bbbb872667347f3fa0d9e404b6a","infoHashBuffer":{"type":"Buffer","data":[169,83,136,85,189,233,43,187,184,114,102,115,71,243,250,13,158,64,75,106]},"announce":[],"urlList":[]}}